<svg
  xmlns="http://www.w3.org/2000/svg"
  enable-background="new 0 0 15 15"
  view-box="0 0 15 15"
  x="0"
  y="0"
  height="15"
  width="15"
>
  <g opacity=".54">
    <g>
      <circle cx="7.5" cy="7.5" fill="#040000" r="7.3"></circle>
      <path
        d="m7.5.5c3.9 0 7 3.1 7 7s-3.1 7-7 7-7-3.1-7-7 3.1-7 7-7m0-.5c-4.1 0-7.5 3.4-7.5 7.5s3.4 7.5 7.5 7.5 7.5-3.4 7.5-7.5-3.4-7.5-7.5-7.5z"
        fill="#ffffff"
      ></path>
    </g>
  </g>
  <path
    clip-rule="evenodd"
    d="m10.2 5.3c.5.7.8 1.4.8 2.2 0 1.9-1.6 3.5-3.5 3.5s-3.5-1.6-3.5-3.5 1.6-3.5 3.5-3.5v.5c-1.6 0-3 1.3-3 3s1.3 3 3 3 3-1.3 3-3c0-.7-.2-1.3-.6-1.8-.1-.1-.1-.1-.1-.1-.1-.1-.1-.3 0-.4s.3-.1.4.1c0-.1 0 0 0 0z"
    fill="#ffffff"
    fill-rule="evenodd"
  ></path>
  <path
    clip-rule="evenodd"
    d="m7.5 2.9c0-.1.1-.1.1-.1l1.4 1.5-1.4 1.4c0 .1-.1.1-.1 0z"
    fill="#ffffff"
    fill-rule="evenodd"
  ></path>
</svg>
